<svg xmlns="http://www.w3.org/2000/svg" width="100" height="100" viewBox="0 0 100 100" version="1.1"><path d="M 36 7.570 L 32.500 9.110 29.849 11.647 L 27.198 14.184 31.099 17.709 L 35 21.233 35 24.722 L 35 28.211 37.531 31.220 L 40.062 34.228 39.444 36.364 L 38.826 38.500 36.802 40.250 L 34.778 42 33.524 42 L 32.270 42 29.635 39.927 L 27 37.855 27 35.427 L 27 33 29 31 L 31 29 31 26.196 L 31 23.392 27.640 20.136 L 24.280 16.879 21.640 20.016 L 19 23.153 19 24.047 L 19 24.942 16.024 29.221 L 13.048 33.500 12.396 37.750 L 11.744 42 15.826 42 L 19.908 42 23.454 46.644 L 27 51.288 27 52.085 L 27 52.882 25.816 53.613 L 24.633 54.345 21.039 50.173 L 17.445 46 13.698 46 L 9.950 46 8.975 48.565 L 8 51.130 8 53 L 8 54.870 9.017 57.544 L 10.033 60.217 11.444 59.046 L 12.856 57.875 16.799 61.437 L 20.742 65 24.716 65 L 28.690 65 30.500 67 L 32.310 69 34.964 69 L 37.618 69 39.476 70.358 L 41.333 71.717 41.333 75 L 41.333 78.283 39.476 79.642 L 37.618 81 34.832 81 L 32.046 81 30.449 78.563 L 28.853 76.126 29.176 74.217 L 29.500 72.307 28.127 70.654 L 26.755 69 22.670 69 L 18.584 69 14.666 65.250 L 10.747 61.500 11.288 65.821 L 11.829 70.141 16.446 77.023 L 21.062 83.904 23.614 85.911 L 26.165 87.918 28.186 88.559 L 30.206 89.200 33.743 91.600 L 37.279 94 40.390 93.986 L 43.500 93.973 45.750 93.370 L 48 92.767 48 75.383 L 48 58 44.203 58 L 40.406 58 36.588 54.090 L 32.770 50.181 33.444 49.090 L 34.118 48 35.372 48 L 36.626 48 39.500 51 L 42.374 54 45.205 54 L 48.036 54 47.768 30.250 L 47.500 6.500 43.500 6.265 L 39.500 6.029 36 7.570 M 52.667 6.667 L 52 7.333 52 20.854 L 52 34.374 54.805 31.687 L 57.609 29 60.150 29 L 62.690 29 64.500 27 L 66.310 25 68.655 25 L 71 25 73 27 L 75 29 75 31.345 L 75 33.690 73.171 35.345 L 71.343 37 68.180 37 L 65.017 37 63.768 35 L 62.519 33 60.962 33 L 59.406 33 55.703 36.792 L 52 40.584 52 66.676 L 52 92.767 54.250 93.370 L 56.500 93.973 59.610 93.986 L 62.721 94 66.405 91.500 L 70.089 89 70.812 89 L 71.536 89 75.196 86.513 L 78.856 84.026 83.514 77.084 L 88.171 70.141 88.685 66.321 L 89.198 62.500 83.349 62.835 L 77.500 63.169 73.900 66.642 L 70.299 70.114 70.747 72.459 L 71.196 74.804 69.098 76.902 L 67 79 64.934 79 L 62.869 79 61.049 78.026 L 59.230 77.053 58.569 74.420 L 57.909 71.788 59.477 69.394 L 61.046 67 64.315 67 L 67.584 67 72 62.500 L 76.416 58 82.008 58 L 87.600 58 88.763 59.163 L 89.926 60.326 90.963 57.598 L 92 54.870 92 52.885 L 92 50.901 90.474 47.950 L 88.949 45 88.149 45 L 87.349 45 85 47.500 L 82.651 50 75.013 50 L 67.374 50 64.500 53 L 61.626 56 60.372 56 L 59.118 56 58.444 54.910 L 57.770 53.819 61.588 49.910 L 65.406 46 73 46 L 80.594 46 84.289 42.216 L 87.984 38.432 87.032 35.113 L 86.081 31.795 83.540 28.464 L 81 25.133 81 23.980 L 81 22.827 74.750 16.277 L 68.500 9.726 64.500 7.885 L 60.500 6.044 56.917 6.022 L 53.333 6 52.667 6.667 M 67.688 29.646 L 67 30.333 67 31.740 L 67 33.147 68.750 32.810 L 70.500 32.473 70.500 31.070 L 70.500 29.667 69.438 29.313 L 68.375 28.958 67.688 29.646 M 31.694 34.639 L 31.054 35.279 31.586 36.139 L 32.118 37 33.559 37 L 35 37 35 35.500 L 35 34 33.667 34 L 32.333 34 31.694 34.639 M 63 73 L 63 75 64.393 75 L 65.786 75 66.324 73.598 L 66.862 72.196 66.264 71.598 L 65.667 71 64.333 71 L 63 71 63 73 M 33.500 74 L 32.882 75 33.500 76 L 34.118 77 35.559 77 L 37 77 37 75 L 37 73 35.559 73 L 34.118 73 33.500 74" stroke="none" fill="#5dcc55" fill-rule="evenodd"/><path d="M 48 30 L 48 54 45.187 54 L 42.374 54 39.500 51 L 36.626 48 35.372 48 L 34.118 48 33.444 49.090 L 32.770 50.181 36.588 54.090 L 40.406 58 44.203 58 L 48 58 48 76 L 48 94 50 94 L 52 94 52 67.203 L 52 40.406 55.792 36.703 L 59.584 33 61.052 33 L 62.519 33 63.768 35 L 65.017 37 68.353 37 L 71.690 37 73.345 35.171 L 75 33.343 75 31.171 L 75 29 73 27 L 71 25 68.655 25 L 66.310 25 64.500 27 L 62.690 29 60.150 29 L 57.609 29 54.805 31.687 L 52 34.374 52 20.187 L 52 6 50 6 L 48 6 48 30 M 25.336 15.566 L 24.735 17.132 27.868 20.364 L 31 23.595 31 26.298 L 31 29 29 31 L 27 33 27 35.427 L 27 37.855 29.635 39.927 L 32.270 42 33.524 42 L 34.778 42 36.802 40.250 L 38.826 38.500 39.444 36.364 L 40.062 34.228 37.531 31.220 L 35 28.211 35 24.722 L 35 21.233 30.997 17.616 L 26.994 14 26.466 14 L 25.937 14 25.336 15.566 M 67.688 29.646 L 67 30.333 67 31.740 L 67 33.147 68.750 32.810 L 70.500 32.473 70.500 31.070 L 70.500 29.667 69.438 29.313 L 68.375 28.958 67.688 29.646 M 31.694 34.639 L 31.054 35.279 31.586 36.139 L 32.118 37 33.559 37 L 35 37 35 35.500 L 35 34 33.667 34 L 32.333 34 31.694 34.639 M 84 42.500 L 80.608 46 73.007 46 L 65.406 46 61.588 49.910 L 57.770 53.819 58.444 54.910 L 59.118 56 60.372 56 L 61.626 56 64.500 53 L 67.374 50 74.984 50 L 82.594 50 86.431 46.071 L 90.268 42.141 89.665 40.571 L 89.063 39 88.228 39 L 87.392 39 84 42.500 M 10.500 43 L 9.882 44 10.500 45 L 11.118 46 14.282 46 L 17.445 46 21.039 50.173 L 24.633 54.345 25.816 53.613 L 27 52.882 27 52.085 L 27 51.288 23.454 46.644 L 19.908 42 15.513 42 L 11.118 42 10.500 43 M 11.053 59.436 L 9.896 60.831 14.198 64.890 L 18.500 68.950 22.628 68.975 L 26.755 69 28.127 70.654 L 29.500 72.307 29.176 74.217 L 28.853 76.126 30.449 78.563 L 32.046 81 34.832 81 L 37.618 81 39.476 79.642 L 41.333 78.283 41.333 75 L 41.333 71.717 39.476 70.358 L 37.618 69 34.964 69 L 32.310 69 30.500 67 L 28.690 65 24.519 65 L 20.349 65 17.924 62.408 L 15.500 59.816 13.855 58.929 L 12.210 58.042 11.053 59.436 M 72 62.500 L 67.584 67 64.315 67 L 61.046 67 59.477 69.394 L 57.909 71.788 58.569 74.420 L 59.230 77.053 61.049 78.026 L 62.869 79 64.934 79 L 67 79 69.063 76.937 L 71.127 74.873 70.814 72.491 L 70.502 70.109 73.947 66.554 L 77.392 63 82.446 62.985 L 87.500 62.969 88.936 62.061 L 90.371 61.152 89.063 59.576 L 87.755 58 82.086 58 L 76.416 58 72 62.500 M 63 73 L 63 75 64.393 75 L 65.786 75 66.324 73.598 L 66.862 72.196 66.264 71.598 L 65.667 71 64.333 71 L 63 71 63 73 M 33.500 74 L 32.882 75 33.500 76 L 34.118 77 35.559 77 L 37 77 37 75 L 37 73 35.559 73 L 34.118 73 33.500 74" stroke="none" fill="#f6faf6" fill-rule="evenodd"/></svg>